<svg id="calendar-date" xmlns="http://www.w3.org/2000/svg" width="24.753" height="24.753" viewBox="0 0 24.753 24.753">
  <path id="Path_57" data-name="Path 57" d="M13.134,22.475V14.223h-.979a19.494,19.494,0,0,0-2.03,1.247v1.075c.58-.4,1.5-.959,1.946-1.2h.019v7.132h1.044Zm1.838-2.019a2.459,2.459,0,0,0,2.635,2.175c1.946,0,3.094-1.65,3.094-4.442,0-2.992-1.208-4.128-3.021-4.128a2.719,2.719,0,0,0-2.78,2.8A2.565,2.565,0,0,0,17.493,19.6a2.156,2.156,0,0,0,2.14-1.223h.042c-.006,2.036-.713,3.348-2.019,3.348a1.531,1.531,0,0,1-1.625-1.269H14.973Zm4.568-3.584A1.813,1.813,0,0,1,17.708,18.7a1.7,1.7,0,0,1-1.77-1.857,1.75,1.75,0,0,1,1.807-1.872A1.723,1.723,0,0,1,19.54,16.872Z" transform="translate(-3.163 -4.393)" fill="#fff"/>
  <path id="Path_58" data-name="Path 58" d="M1.547,6.891V22.362a1.547,1.547,0,0,0,1.547,1.547H21.659a1.547,1.547,0,0,0,1.547-1.547V6.891ZM3.094,2.25A3.094,3.094,0,0,0,0,5.344V22.362a3.094,3.094,0,0,0,3.094,3.094H21.659a3.094,3.094,0,0,0,3.094-3.094V5.344A3.094,3.094,0,0,0,21.659,2.25Z" transform="translate(0 -0.703)" fill="#fff" fill-rule="evenodd"/>
  <path id="Path_59" data-name="Path 59" d="M7.524,0A.774.774,0,0,1,8.3.774v.774a.774.774,0,0,1-1.547,0V.774A.774.774,0,0,1,7.524,0ZM21.447,0a.774.774,0,0,1,.774.774v.774a.774.774,0,1,1-1.547,0V.774A.774.774,0,0,1,21.447,0Z" transform="translate(-2.109)" fill="#fff" fill-rule="evenodd"/>
</svg>
