<svg xmlns="http://www.w3.org/2000/svg" width="23.279" height="27.158" viewBox="0 0 23.279 27.158">
  <g id="file-earmark-arrow-up" transform="translate(-4.5 -2.25)">
    <path id="Path_29" data-name="Path 29" d="M8.38,2.25h9.7V4.19H8.38A1.94,1.94,0,0,0,6.44,6.13v19.4a1.94,1.94,0,0,0,1.94,1.94H23.9a1.94,1.94,0,0,0,1.94-1.94V11.949h1.94V25.529a3.88,3.88,0,0,1-3.88,3.88H8.38a3.88,3.88,0,0,1-3.88-3.88V6.13A3.88,3.88,0,0,1,8.38,2.25Z" fill="#fff"/>
    <path id="Path_30" data-name="Path 30" d="M20.25,9.04V2.25l9.7,9.7H23.16A2.91,2.91,0,0,1,20.25,9.04Z" transform="translate(-2.171)" fill="#fff"/>
    <path id="Path_31" data-name="Path 31" d="M12.658,19.036a.97.97,0,0,0,1.373,0l3.193-3.194,3.193,3.2a.971.971,0,1,0,1.373-1.373l-3.88-3.88a.97.97,0,0,0-1.373,0l-3.88,3.88a.97.97,0,0,0,0,1.373Z" transform="translate(-1.085 -1.55)" fill="#fff" fill-rule="evenodd"/>
    <path id="Path_32" data-name="Path 32" d="M17.845,25.449a.97.97,0,0,0,.97-.97V16.72a.97.97,0,0,0-1.94,0v7.76A.97.97,0,0,0,17.845,25.449Z" transform="translate(-1.706 -1.861)" fill="#fff" fill-rule="evenodd"/>
  </g>
</svg>
