<svg xmlns="http://www.w3.org/2000/svg" width="27.635" height="13.817" viewBox="0 0 27.635 13.817">
  <path id="_123" data-name="123" d="M5.763,24.317V13.263H3V10.5H8.527V24.317H5.763m24.871-2.763a2.763,2.763,0,0,1-2.763,2.763H22.344V21.554h5.527V18.79H25.108V16.027h2.763V13.263H22.344V10.5h5.527a2.763,2.763,0,0,1,2.763,2.763v2.073a2.073,2.073,0,0,1-2.073,2.073,2.073,2.073,0,0,1,2.073,2.073v2.073m-11.054,0v2.763H11.29V18.79a2.763,2.763,0,0,1,2.763-2.763h2.763V13.263H11.29V10.5h5.527a2.763,2.763,0,0,1,2.763,2.763v2.763a2.763,2.763,0,0,1-2.763,2.763H14.054v2.763Z" transform="translate(-3 -10.5)" fill="#fff"/>
</svg>
