<svg id="table" xmlns="http://www.w3.org/2000/svg" width="26" height="26" viewBox="0 0 26 26">
  <path id="Path_28" data-name="Path 28" d="M0,3.25A3.25,3.25,0,0,1,3.25,0h19.5A3.25,3.25,0,0,1,26,3.25v19.5A3.25,3.25,0,0,1,22.75,26H3.25A3.25,3.25,0,0,1,0,22.75ZM24.375,6.5h-6.5v4.875h6.5Zm0,6.5h-6.5v4.875h6.5Zm0,6.5h-6.5v4.875H22.75a1.625,1.625,0,0,0,1.625-1.625ZM16.25,24.375V19.5H9.75v4.875Zm-8.125,0V19.5h-6.5v3.25A1.625,1.625,0,0,0,3.25,24.375Zm-6.5-6.5h6.5V13h-6.5Zm0-6.5h6.5V6.5h-6.5ZM9.75,6.5v4.875h6.5V6.5Zm6.5,6.5H9.75v4.875h6.5Z" fill="#fff" fill-rule="evenodd"/>
</svg>
