<svg xmlns="http://www.w3.org/2000/svg" width="32.676" height="24.988" viewBox="0 0 32.676 24.988">
  <g id="textarea-resize" transform="translate(-1.125 -3.375)">
    <path id="Path_15" data-name="Path 15" d="M1.125,8.18A4.805,4.805,0,0,1,5.93,3.375H29A4.805,4.805,0,0,1,33.8,8.18V23.557A4.805,4.805,0,0,1,29,28.363H5.93a4.805,4.805,0,0,1-4.805-4.805ZM5.93,5.3A2.883,2.883,0,0,0,3.047,8.18V23.557A2.883,2.883,0,0,0,5.93,26.441H29a2.883,2.883,0,0,0,2.883-2.883V8.18A2.883,2.883,0,0,0,29,5.3ZM28.715,16.15a.961.961,0,0,1,0,1.361l-5.766,5.766a.962.962,0,1,1-1.361-1.361l5.766-5.766a.961.961,0,0,1,1.361,0Zm0,4.805a.961.961,0,0,1,0,1.361l-.961.961a.962.962,0,0,1-1.361-1.361l.961-.961a.961.961,0,0,1,1.361,0Z" transform="translate(0 0)" fill="#fff" fill-rule="evenodd"/>
  </g>
</svg>
