<svg xmlns="http://www.w3.org/2000/svg" width="30.018" height="20.637" viewBox="0 0 30.018 20.637">
  <path id="textfield" d="M28.142,16.885H15.009v1.876h2.814a.938.938,0,0,1,0,1.876h-7.5a.938.938,0,0,1,0-1.876h2.814V16.885H1.876a1.815,1.815,0,0,1-1.334-.542A1.809,1.809,0,0,1,0,15.009V5.628A1.828,1.828,0,0,1,.542,4.309a1.788,1.788,0,0,1,1.334-.557H13.133V1.876H10.319a.9.9,0,0,1-.66-.278.9.9,0,0,1-.278-.66.9.9,0,0,1,.278-.66A.9.9,0,0,1,10.319,0h7.5a.9.9,0,0,1,.66.278.9.9,0,0,1,.278.66.9.9,0,0,1-.278.66.9.9,0,0,1-.66.278H15.009V3.752H28.142a1.79,1.79,0,0,1,1.334.557,1.823,1.823,0,0,1,.542,1.319v9.381a1.79,1.79,0,0,1-.557,1.334A1.823,1.823,0,0,1,28.142,16.885ZM13.133,5.628H1.876v9.381H13.133Zm15.009,0H15.009v9.381H28.142ZM4.69,7.5a.951.951,0,0,1,.938.938v3.752a.933.933,0,0,1-1.6.66.9.9,0,0,1-.278-.66V8.442A.951.951,0,0,1,4.69,7.5Z" fill="#fff"/>
</svg>
