<svg xmlns="http://www.w3.org/2000/svg" width="27.765" height="14.808" viewBox="0 0 27.765 14.808">
  <g id="toggle-off" transform="translate(-1.125 -9)">
    <path id="Path_22" data-name="Path 22" d="M21.486,9H8.529a7.4,7.4,0,0,0,0,14.808H21.486A7.4,7.4,0,0,0,21.486,9Zm0,12.957H8.529a5.553,5.553,0,0,1,0-11.106H21.486a5.553,5.553,0,0,1,0,11.106Z" fill="#fff"/>
    <path id="Path_23" data-name="Path 23" d="M9.327,13.5a3.7,3.7,0,1,0,3.7,3.7A3.7,3.7,0,0,0,9.327,13.5Zm0,5.553A1.851,1.851,0,1,1,11.178,17.2a1.851,1.851,0,0,1-1.851,1.851Z" transform="translate(-0.798 -0.798)" fill="#fff"/>
  </g>
</svg>
