<svg xmlns="http://www.w3.org/2000/svg" width="25.5" height="25.5" viewBox="0 0 25.5 25.5">
  <g id="user-avatar-filled-alt" transform="translate(-2.25 -2.25)">
    <path id="Path_55" data-name="Path 55" d="M15,2.25A12.75,12.75,0,1,0,27.75,15,12.75,12.75,0,0,0,15,2.25Zm7.286,20.873v-.554a4.744,4.744,0,0,0-4.554-4.837H12.268a4.736,4.736,0,0,0-4.545,4.836c0,.01-.009.02-.009.03v.533a10.934,10.934,0,1,1,14.572-.009Z" transform="translate(0 0)" fill="#fff"/>
    <path id="Path_56" data-name="Path 56" d="M16.929,7.875a4.554,4.554,0,1,0,4.554,4.554,4.554,4.554,0,0,0-4.554-4.554Z" transform="translate(-1.928 -1.071)" fill="#fff"/>
  </g>
</svg>
